<svg xmlns="http://www.w3.org/2000/svg" viewBox="0 0 64 64" fill="none">
  <defs>
    <linearGradient id="g" x1="10" y1="6" x2="54" y2="58" gradientUnits="userSpaceOnUse">
      <stop stop-color="#2563eb"/>
      <stop offset="0.5" stop-color="#4f46e5"/>
      <stop offset="1" stop-color="#06b6d4"/>
    </linearGradient>
  </defs>
  <rect x="6" y="6" width="52" height="52" rx="12" fill="#0f172a"/>
  <path d="M38.5 12.5a2 2 0 0 0-2.8 0l-5 5.1a4.5 4.5 0 0 0-1.2 4.1l.6 2.7-9.4 9.5a3 3 0 0 0 0 4.3l5.1 5.1a3 3 0 0 0 4.3 0l9.4-9.5 2.7.6a4.5 4.5 0 0 0 4.1-1.2l5-5a2 2 0 0 0 0-2.9l-7.6-7.5a2 2 0 0 0-1.4-.6 2 2 0 0 0-1.4.6l-1.8 1.8-3.6-3.6 1.8-1.8a2 2 0 0 0 0-2.8Z" fill="url(#g)" stroke="#e2e8f0" stroke-width="1.4" stroke-linejoin="round"/>
  <circle cx="27" cy="37" r="2.6" fill="#e2e8f0"/>
</svg>
